<svg width="169" height="165" viewBox="0 0 169 165" fill="none" xmlns="http://www.w3.org/2000/svg">
<path d="M64.3281 48.3897C74.7897 55.0236 63.7396 64.627 54.8165 73.7581C45.8934 82.8892 41.1341 93.2587 31.9327 84.9477C22.7314 76.6367 12.2725 48.5139 16.5369 39.1827C26.9168 33.9103 56.7333 38.9665 64.3281 48.3897Z" fill="#6ECEF5"/>
<path d="M64.1812 55.9126C73.4997 61.8216 66.6441 67.8086 58.6961 75.9419C50.748 84.0752 46.5564 87.4969 38.3605 80.0941C30.1646 72.6913 20.801 53.4563 24.5994 45.1447C33.8451 40.4485 57.4164 47.5191 64.1812 55.9126Z" fill="#F3F3F3"/>
<path d="M107.144 48.3897C97.1045 55.0236 107.709 64.627 116.272 73.7581C124.835 82.8892 129.402 93.2587 138.232 84.9477C147.063 76.6367 157.1 48.5139 153.007 39.1827C143.046 33.9103 114.432 38.9665 107.144 48.3897Z" fill="#6ECEF5"/>
<path d="M107.285 55.9126C98.3421 61.8216 104.921 67.8086 112.549 75.9419C120.176 84.0752 124.198 87.4969 132.064 80.0941C139.929 72.6913 148.915 53.4563 145.27 45.1447C136.397 40.4485 113.777 47.5191 107.285 55.9126Z" fill="#F3F3F3"/>
<path d="M152.455 103.041C152.455 135.592 123.882 149.772 85.2996 149.772C46.7176 149.772 16.9614 135.592 16.9614 103.041C16.9614 70.4902 46.7176 38.6987 85.2996 38.6987C123.882 38.6987 152.455 70.4902 152.455 103.041Z" fill="#6ECEF5"/>
<ellipse cx="64.6785" cy="92.4891" rx="8.24294" ry="8.55205" fill="#352B29"/>
<ellipse cx="64.5759" cy="89.3981" rx="2.36984" ry="1.9577" fill="white"/>
<ellipse cx="106.951" cy="92.283" rx="8.24294" ry="8.55205" fill="#352B29"/>
<ellipse cx="106.642" cy="89.1921" rx="2.36984" ry="1.9577" fill="white"/>
<path d="M72.4214 92.4891C72.4214 96.9536 68.9376 100.541 64.6785 100.541C60.4194 100.541 56.9355 96.9536 56.9355 92.4891C56.9355 88.0245 60.4194 84.437 64.6785 84.437C68.9376 84.437 72.4214 88.0245 72.4214 92.4891Z" fill="white" stroke="black"/>
<ellipse cx="64.5759" cy="89.3981" rx="2.36984" ry="1.9577" fill="white"/>
<path d="M114.694 92.283C114.694 96.7475 111.21 100.335 106.951 100.335C102.692 100.335 99.208 96.7475 99.208 92.283C99.208 87.8185 102.692 84.231 106.951 84.231C111.21 84.231 114.694 87.8185 114.694 92.283Z" fill="white" stroke="black"/>
<ellipse cx="106.642" cy="89.1921" rx="2.36984" ry="1.9577" fill="white"/>
<ellipse cx="54.7889" cy="149.555" rx="23.791" ry="12.5367" transform="rotate(-5.14064 54.7889 149.555)" fill="#3496F4"/>
<ellipse cx="23.791" cy="12.5367" rx="23.791" ry="12.5367" transform="matrix(-0.995978 -0.0896008 -0.0896008 0.995978 143.663 139.2)" fill="#3496F4"/>
<path d="M21.0779 95.0353C17.5817 97.2565 11.6264 94.1445 7.77625 88.0844C3.92614 82.0243 -0.119333 75.9217 3.37688 73.7005C6.87309 71.4793 20.3477 73.6341 24.1978 79.6942C28.0479 85.7543 24.5741 92.8141 21.0779 95.0353Z" fill="#6ECEF5"/>
<path d="M150.174 102.561C154.055 104.01 159.236 99.7321 161.747 93.0059C164.259 86.2797 166.952 79.4715 163.072 78.0227C159.191 76.5739 146.455 81.4732 143.944 88.1994C141.433 94.9256 146.294 101.113 150.174 102.561Z" fill="#6ECEF5"/>
<path d="M73.7417 115.5L85 96L96.2583 115.5H73.7417Z" fill="#D70000" stroke="black"/>
<path d="M49.7387 16.925L53.5751 31.8486L50.2731 32.7783L45.7701 18.0424L49.7387 16.925ZM53.7257 38.7124C53.1035 38.8876 52.5087 38.8189 51.9412 38.5065C51.3804 38.1922 51.0115 37.7205 50.8345 37.0916C50.6612 36.4763 50.7318 35.8883 51.0461 35.3276C51.3673 34.7649 51.839 34.396 52.4611 34.2209C53.0695 34.0496 53.6576 34.1201 54.2251 34.4325C54.7995 34.743 55.1733 35.2059 55.3465 35.8212C55.4639 36.2382 55.4648 36.6475 55.3491 37.049C55.2403 37.4486 55.0438 37.799 54.7597 38.1003C54.4805 38.3929 54.1359 38.5969 53.7257 38.7124ZM57.9281 14.6194L61.7645 29.543L58.4625 30.4726L53.9596 15.7367L57.9281 14.6194ZM61.9151 36.4068C61.293 36.5819 60.6981 36.5133 60.1306 36.2009C59.5699 35.8865 59.201 35.4148 59.0239 34.7859C58.8507 34.1706 58.9212 33.5826 59.2356 33.0219C59.5568 32.4592 60.0284 32.0903 60.6505 31.9152C61.259 31.7439 61.847 31.8144 62.4145 32.1269C62.9889 32.4374 63.3627 32.9003 63.536 33.5156C63.6534 33.9326 63.6542 34.3418 63.5385 34.7433C63.4297 35.1429 63.2332 35.4933 62.9491 35.7947C62.67 36.0872 62.3253 36.2913 61.9151 36.4068ZM66.1176 12.3137L69.954 27.2373L66.6519 28.167L62.149 13.431L66.1176 12.3137ZM70.1045 34.1011C69.4824 34.2762 68.8876 34.2076 68.32 33.8952C67.7593 33.5808 67.3904 33.1092 67.2133 32.4802C67.0401 31.8649 67.1106 31.2769 67.425 30.7162C67.7462 30.1536 68.2178 29.7847 68.84 29.6095C69.4484 29.4382 70.0364 29.5088 70.604 29.8212C71.1784 30.1317 71.5522 30.5946 71.7254 31.2099C71.8428 31.6269 71.8437 32.0362 71.728 32.4377C71.6191 32.8372 71.4226 33.1877 71.1386 33.489C70.8594 33.7816 70.5147 33.9856 70.1045 34.1011ZM74.307 10.008L78.1434 24.9316L74.8414 25.8613L70.3384 11.1253L74.307 10.008ZM78.294 31.7954C77.6718 31.9706 77.077 31.9019 76.5094 31.5895C75.9487 31.2752 75.5798 30.8035 75.4027 30.1746C75.2295 29.5593 75.3001 28.9713 75.6144 28.4105C75.9356 27.8479 76.4073 27.479 77.0294 27.3039C77.6378 27.1325 78.2258 27.2031 78.7934 27.5155C79.3678 27.826 79.7416 28.2889 79.9148 28.9042C80.0322 29.3212 80.0331 29.7305 79.9174 30.132C79.8085 30.5316 79.6121 30.882 79.328 31.1833C79.0488 31.4759 78.7041 31.6799 78.294 31.7954ZM82.4964 7.70235L86.3328 22.626L83.0308 23.5556L78.5278 8.81968L82.4964 7.70235ZM86.4834 29.4898C85.8613 29.6649 85.2664 29.5963 84.6989 29.2838C84.1382 28.9695 83.7693 28.4978 83.5922 27.8689C83.4189 27.2536 83.4895 26.6656 83.8039 26.1049C84.125 25.5422 84.5967 25.1733 85.2188 24.9982C85.8273 24.8269 86.4153 24.8974 86.9828 25.2099C87.5572 25.5204 87.931 25.9833 88.1043 26.5985C88.2217 27.0156 88.2225 27.4248 88.1068 27.8263C87.998 28.2259 87.8015 28.5763 87.5174 28.8777C87.2383 29.1702 86.8936 29.3743 86.4834 29.4898Z" fill="black"/>
</svg>
