<svg width="169" height="144" viewBox="0 0 169 144" fill="none" xmlns="http://www.w3.org/2000/svg">
<path d="M64.3281 27.3894C74.7897 34.0233 63.7396 43.6267 54.8165 52.7578C45.8934 61.8889 41.1341 72.2584 31.9327 63.9474C22.7314 55.6365 12.2725 27.5137 16.5369 18.1824C26.9168 12.9101 56.7333 17.9662 64.3281 27.3894Z" fill="#6ECEF5"/>
<path d="M64.1812 34.9126C73.4997 40.8216 66.6441 46.8086 58.6961 54.9419C50.748 63.0752 46.5564 66.4969 38.3605 59.0941C30.1646 51.6913 20.801 32.4563 24.5994 24.1447C33.8451 19.4485 57.4164 26.5191 64.1812 34.9126Z" fill="#F3F3F3"/>
<path d="M107.144 27.3894C97.1045 34.0233 107.709 43.6267 116.272 52.7578C124.835 61.8889 129.402 72.2584 138.232 63.9474C147.063 55.6365 157.1 27.5137 153.007 18.1824C143.046 12.9101 114.432 17.9662 107.144 27.3894Z" fill="#6ECEF5"/>
<path d="M107.285 34.9126C98.3421 40.8216 104.921 46.8086 112.549 54.9419C120.176 63.0752 124.198 66.4969 132.064 59.0941C139.929 51.6913 148.915 32.4563 145.27 24.1447C136.397 19.4485 113.777 26.5191 107.285 34.9126Z" fill="#F3F3F3"/>
<path d="M152.455 82.0419C152.455 114.593 123.882 128.773 85.2996 128.773C46.7176 128.773 16.9614 114.593 16.9614 82.0419C16.9614 49.4907 46.7176 17.6992 85.2996 17.6992C123.882 17.6992 152.455 49.4907 152.455 82.0419Z" fill="#6ECEF5"/>
<ellipse cx="64.6785" cy="71.4895" rx="8.24294" ry="8.55205" fill="#352B29"/>
<ellipse cx="64.5759" cy="68.3986" rx="2.36984" ry="1.9577" fill="white"/>
<ellipse cx="106.951" cy="71.2832" rx="8.24294" ry="8.55205" fill="#352B29"/>
<ellipse cx="106.642" cy="68.1923" rx="2.36984" ry="1.9577" fill="white"/>
<ellipse cx="64.6785" cy="71.4895" rx="8.24294" ry="8.55205" fill="#352B29"/>
<ellipse cx="64.5759" cy="68.3986" rx="2.36984" ry="1.9577" fill="white"/>
<ellipse cx="106.951" cy="71.2832" rx="8.24294" ry="8.55205" fill="#352B29"/>
<ellipse cx="106.642" cy="68.1923" rx="2.36984" ry="1.9577" fill="white"/>
<path d="M73.1524 83.5335C73.843 82.4042 75.3183 82.0486 76.4475 82.7392L90.2169 91.1598C88.8358 93.4183 85.8852 94.1295 83.6267 92.7483L73.9467 86.8286C72.8174 86.138 72.4618 84.6627 73.1524 83.5335Z" fill="#352B29"/>
<path d="M100.224 83.1882C99.533 82.059 98.0577 81.7034 96.9285 82.394L82.4082 91.2737C83.7894 93.5322 86.7399 94.2434 88.9984 92.8623L99.4293 86.4834C100.559 85.7928 100.914 84.3175 100.224 83.1882Z" fill="#352B29"/>
<ellipse cx="54.7889" cy="128.555" rx="23.791" ry="12.5367" transform="rotate(-5.14064 54.7889 128.555)" fill="#3496F4"/>
<ellipse cx="23.791" cy="12.5367" rx="23.791" ry="12.5367" transform="matrix(-0.995978 -0.0896008 -0.0896008 0.995978 143.663 118.2)" fill="#3496F4"/>
<path d="M31.0101 90.3772C32.5533 94.2211 28.4031 99.5057 21.7403 102.181C15.0775 104.856 8.33714 107.715 6.79392 103.871C5.25069 100.027 9.8372 87.1749 16.5 84.5C23.1628 81.8251 29.4668 86.5332 31.0101 90.3772Z" fill="#6ECEF5"/>
<path d="M137.238 90.3772C135.695 94.2211 139.845 99.5057 146.508 102.181C153.171 104.856 159.911 107.715 161.455 103.871C162.998 100.027 158.411 87.1749 151.749 84.5C145.086 81.8251 138.782 86.5332 137.238 90.3772Z" fill="#6ECEF5"/>
</svg>
