<svg width="169" height="144" viewBox="0 0 169 144" fill="none" xmlns="http://www.w3.org/2000/svg">
<path d="M64.3281 27.3894C74.7897 34.0233 63.7396 43.6267 54.8165 52.7578C45.8934 61.8889 41.1341 72.2584 31.9327 63.9474C22.7314 55.6365 12.2725 27.5137 16.5369 18.1824C26.9168 12.9101 56.7333 17.9662 64.3281 27.3894Z" fill="#6ECEF5"/>
<path d="M64.1812 34.9126C73.4997 40.8216 66.6441 46.8086 58.6961 54.9419C50.748 63.0752 46.5564 66.4969 38.3605 59.0941C30.1646 51.6913 20.801 32.4563 24.5994 24.1447C33.8451 19.4485 57.4164 26.5191 64.1812 34.9126Z" fill="#F3F3F3"/>
<path d="M107.144 27.3894C97.1045 34.0233 107.709 43.6267 116.272 52.7578C124.835 61.8889 129.402 72.2584 138.232 63.9474C147.063 55.6365 157.1 27.5137 153.007 18.1824C143.046 12.9101 114.432 17.9662 107.144 27.3894Z" fill="#6ECEF5"/>
<path d="M107.285 34.9126C98.3421 40.8216 104.921 46.8086 112.549 54.9419C120.176 63.0752 124.198 66.4969 132.064 59.0941C139.929 51.6913 148.915 32.4563 145.27 24.1447C136.397 19.4485 113.777 26.5191 107.285 34.9126Z" fill="#F3F3F3"/>
<path d="M152.456 82.0419C152.456 114.593 123.882 128.773 85.3001 128.773C46.7181 128.773 16.9619 114.593 16.9619 82.0419C16.9619 49.4907 46.7181 17.6992 85.3001 17.6992C123.882 17.6992 152.456 49.4907 152.456 82.0419Z" fill="#6ECEF5"/>
<ellipse cx="64.6785" cy="71.4895" rx="8.24294" ry="8.55205" fill="#352B29"/>
<ellipse cx="64.5759" cy="68.3986" rx="2.36984" ry="1.9577" fill="white"/>
<ellipse cx="106.951" cy="71.2832" rx="8.24294" ry="8.55205" fill="#352B29"/>
<ellipse cx="106.641" cy="68.1923" rx="2.36984" ry="1.9577" fill="white"/>
<ellipse cx="64.6785" cy="71.4895" rx="8.24294" ry="8.55205" fill="#352B29"/>
<ellipse cx="64.5759" cy="68.3986" rx="2.36984" ry="1.9577" fill="white"/>
<ellipse cx="106.951" cy="71.2832" rx="8.24294" ry="8.55205" fill="#352B29"/>
<ellipse cx="106.641" cy="68.1923" rx="2.36984" ry="1.9577" fill="white"/>
<path d="M73.1519 83.5335C73.8425 82.4042 75.3178 82.0486 76.447 82.7392L90.2165 91.1598C88.8353 93.4183 85.8847 94.1295 83.6262 92.7483L73.9462 86.8286C72.817 86.138 72.4613 84.6627 73.1519 83.5335Z" fill="#352B29"/>
<path d="M100.223 83.1882C99.5325 82.059 98.0572 81.7034 96.928 82.394L82.4077 91.2737C83.7889 93.5322 86.7394 94.2434 88.9979 92.8623L99.4288 86.4834C100.558 85.7928 100.914 84.3175 100.223 83.1882Z" fill="#352B29"/>
<ellipse cx="54.7884" cy="128.555" rx="23.791" ry="12.5367" transform="rotate(-5.14064 54.7884 128.555)" fill="#3496F4"/>
<ellipse cx="23.791" cy="12.5367" rx="23.791" ry="12.5367" transform="matrix(-0.995978 -0.0896008 -0.0896008 0.995978 143.663 118.2)" fill="#3496F4"/>
</svg>
