<svg width="172" height="147" viewBox="0 0 172 147" fill="none" xmlns="http://www.w3.org/2000/svg">
<g filter="url(#filter0_d_319_1130)">
<path d="M65.3281 27.3894C75.7897 34.0233 64.7396 43.6267 55.8165 52.7578C46.8934 61.8889 42.1341 72.2584 32.9327 63.9474C23.7314 55.6365 13.2725 27.5137 17.5369 18.1824C27.9168 12.9101 57.7333 17.9662 65.3281 27.3894Z" fill="#6ECEF5"/>
<path d="M65.1812 34.9126C74.4997 40.8216 67.6441 46.8086 59.6961 54.9419C51.748 63.0752 47.5564 66.4969 39.3605 59.0941C31.1646 51.6913 21.801 32.4563 25.5994 24.1447C34.8451 19.4485 58.4164 26.5191 65.1812 34.9126Z" fill="#F3F3F3"/>
<path d="M108.144 27.3894C98.1045 34.0233 108.709 43.6267 117.272 52.7578C125.835 61.8889 130.402 72.2584 139.232 63.9474C148.063 55.6365 158.1 27.5137 154.007 18.1824C144.046 12.9101 115.432 17.9662 108.144 27.3894Z" fill="#6ECEF5"/>
<path d="M108.285 34.9126C99.3421 40.8216 105.921 46.8086 113.549 54.9419C121.176 63.0752 125.198 66.4969 133.064 59.0941C140.929 51.6913 149.915 32.4563 146.27 24.1447C137.397 19.4485 114.777 26.5191 108.285 34.9126Z" fill="#F3F3F3"/>
<ellipse cx="54.7884" cy="125.555" rx="23.791" ry="12.5367" transform="rotate(-5.14064 54.7884 125.555)" fill="#3496F4"/>
<ellipse cx="23.791" cy="12.5367" rx="23.791" ry="12.5367" transform="matrix(-0.995978 -0.0896008 -0.0896008 0.995978 143.663 115.2)" fill="#3496F4"/>
<path d="M153.456 82.0419C153.456 114.593 124.882 128.773 86.3001 128.773C47.7181 128.773 17.9619 114.593 17.9619 82.0419C17.9619 49.4907 47.7181 17.6992 86.3001 17.6992C124.882 17.6992 153.456 49.4907 153.456 82.0419Z" fill="#6ECEF5"/>
<ellipse cx="65.6785" cy="71.4895" rx="8.24294" ry="8.55205" fill="#352B29"/>
<ellipse cx="65.5759" cy="68.3986" rx="2.36984" ry="1.9577" fill="white"/>
<ellipse cx="107.951" cy="71.2832" rx="8.24294" ry="8.55205" fill="#352B29"/>
<ellipse cx="107.641" cy="68.1923" rx="2.36984" ry="1.9577" fill="white"/>
<ellipse cx="65.6785" cy="71.4895" rx="8.24294" ry="8.55205" fill="#352B29"/>
<ellipse cx="65.5759" cy="68.3986" rx="2.36984" ry="1.9577" fill="white"/>
<ellipse cx="107.951" cy="71.2832" rx="8.24294" ry="8.55205" fill="#352B29"/>
<ellipse cx="107.641" cy="68.1923" rx="2.36984" ry="1.9577" fill="white"/>
<path d="M74.1519 83.5335C74.8425 82.4042 76.3178 82.0486 77.447 82.7392L91.2165 91.1598C89.8353 93.4183 86.8847 94.1295 84.6262 92.7483L74.9462 86.8286C73.817 86.138 73.4613 84.6627 74.1519 83.5335Z" fill="#352B29"/>
<path d="M101.223 83.1882C100.532 82.059 99.0572 81.7034 97.928 82.394L83.4077 91.2737C84.7889 93.5322 87.7394 94.2434 89.9979 92.8623L100.429 86.4834C101.558 85.7928 101.914 84.3175 101.223 83.1882Z" fill="#352B29"/>
<path d="M52.1132 66.7488C56.1546 71.6483 50.1987 83.2354 38.8102 92.6292C27.4218 102.023 11.4118 108.555 7.37037 103.655C3.32895 98.7556 12.7865 84.2802 24.175 74.8864C35.5634 65.4926 48.0718 61.8492 52.1132 66.7488Z" fill="#6ECEF5"/>
<path d="M17.9911 80.2826C18.9198 78.5814 20.7887 77.8117 22.1649 78.5629C23.541 79.3142 21.5473 79.4784 20.6186 81.1796C19.6899 82.8808 20.1779 85.4747 18.8018 84.7234C17.4256 83.9722 17.0624 81.9838 17.9911 80.2826Z" fill="#6ECEF5"/>
<path d="M21.9751 102.352C23.0663 102.844 24.1894 102.714 24.4836 102.061C24.7778 101.409 23.8453 101.825 22.7541 101.333C21.663 100.841 20.8265 99.6268 20.5323 100.279C20.2381 100.931 20.884 101.859 21.9751 102.352Z" fill="#6ECEF5"/>
<path d="M119.419 66.8714C115.378 71.7709 121.334 83.358 132.722 92.7518C144.11 102.146 160.12 108.677 164.162 103.778C168.203 98.8781 158.746 84.4027 147.357 75.0089C135.969 65.6151 123.46 61.9718 119.419 66.8714Z" fill="#6ECEF5"/>
<path d="M153.454 80.4529C152.525 78.7517 150.688 77.9646 149.351 78.6946C148.013 79.4246 149.966 79.6115 150.894 81.3127C151.823 83.0139 151.377 85.5851 152.714 84.8551C154.051 84.1251 154.383 82.154 153.454 80.4529Z" fill="#6ECEF5"/>
<path d="M149.557 102.474C148.466 102.966 147.343 102.836 147.049 102.184C146.754 101.532 147.687 101.948 148.778 101.456C149.869 100.963 150.706 99.7494 151 100.402C151.294 101.054 150.648 101.982 149.557 102.474Z" fill="#6ECEF5"/>
</g>
<defs>
<filter id="filter0_d_319_1130" x="2.41992" y="16.052" width="166.692" height="130.172" filterUnits="userSpaceOnUse" color-interpolation-filters="sRGB">
<feFlood flood-opacity="0" result="BackgroundImageFix"/>
<feColorMatrix in="SourceAlpha" type="matrix" values="0 0 0 0 0 0 0 0 0 0 0 0 0 0 0 0 0 0 127 0" result="hardAlpha"/>
<feOffset dy="4"/>
<feGaussianBlur stdDeviation="2"/>
<feComposite in2="hardAlpha" operator="out"/>
<feColorMatrix type="matrix" values="0 0 0 0 0 0 0 0 0 0 0 0 0 0 0 0 0 0 0.25 0"/>
<feBlend mode="normal" in2="BackgroundImageFix" result="effect1_dropShadow_319_1130"/>
<feBlend mode="normal" in="SourceGraphic" in2="effect1_dropShadow_319_1130" result="shape"/>
</filter>
</defs>
</svg>
