<svg width="11" height="7" viewBox="0 0 11 7" fill="none" xmlns="http://www.w3.org/2000/svg">
<path d="M5.5 7C5.36846 7 5.2412 6.97328 5.11821 6.91985C4.99456 6.86641 4.89163 6.79516 4.80942 6.70611L0.2713 1.79008C0.0904331 1.59415 0 1.34478 0 1.04198C0 0.739185 0.0904331 0.489821 0.2713 0.293893C0.452167 0.097964 0.682362 0 0.961883 0C1.2414 0 1.4716 0.097964 1.65247 0.293893L5.5 4.46183L9.34753 0.293893C9.5284 0.097964 9.75859 0 10.0381 0C10.3176 0 10.5478 0.097964 10.7287 0.293893C10.9096 0.489821 11 0.739185 11 1.04198C11 1.34478 10.9096 1.59415 10.7287 1.79008L6.19058 6.70611C6.09193 6.81298 5.98505 6.8885 5.86995 6.93267C5.75486 6.97756 5.63154 7 5.5 7Z" fill="white"/>
</svg>
