<svg width="112" height="112" viewBox="0 0 112 112" fill="none" xmlns="http://www.w3.org/2000/svg">
<path d="M96 0H16C7.16344 0 0 7.16344 0 16V96C0 104.837 7.16344 112 16 112H96C104.837 112 112 104.837 112 96V16C112 7.16344 104.837 0 96 0Z" fill="#63BA3C"/>
<path fill-rule="evenodd" clip-rule="evenodd" d="M72 24H40C35.584 24 32 27.584 32 32V84C32 86.208 33.792 88 36 88C37.4 88 38.568 87.24 39.28 86.152L39.312 86.16L54.72 68.32C55.36 67.472 56.64 67.472 57.28 68.32L72.688 86.16L72.72 86.152C73.432 87.24 74.6 88 76 88C78.208 88 80 86.208 80 84V32C80 27.584 76.416 24 72 24Z" fill="white"/>
</svg>
