<svg width="100" height="100" viewBox="0 0 100 100" fill="none" xmlns="http://www.w3.org/2000/svg">
<path fill-rule="evenodd" clip-rule="evenodd" d="M50 100C77.6143 100 100 77.6142 100 50C100 22.3858 77.6143 0 50 0C22.3857 0 0 22.3858 0 50C0 77.6142 22.3857 100 50 100ZM68.7927 39.7143C68.7927 43.9829 65.4073 47.4286 61.1818 47.4286C56.9564 47.4286 53.5455 43.9829 53.5455 39.7143C53.5455 35.4457 56.9564 32 61.1818 32C65.4073 32 68.7927 35.4457 68.7927 39.7143ZM48.4291 39.7143C48.4291 43.9829 45.0436 47.4286 40.8182 47.4286C36.5927 47.4286 33.1818 43.9829 33.1818 39.7143C33.1818 35.4457 36.5927 32 40.8182 32C45.0436 32 48.4291 35.4457 48.4291 39.7143ZM23 61.5714C23 55.58 34.8873 52.5714 40.8182 52.5714C46.7491 52.5714 58.6364 55.58 58.6364 61.5714V68H23V61.5714ZM58.7127 52.7C59.6036 52.6229 60.4437 52.5714 61.1818 52.5714C67.1127 52.5714 79 55.58 79 61.5714V68H63.7273V61.5714C63.7273 57.7657 61.6655 54.86 58.7127 52.7Z" fill="white"/>
</svg>
