<svg width="100" height="100" viewBox="0 0 100 100" fill="none" xmlns="http://www.w3.org/2000/svg">
<path d="M50 75C51.4167 75 52.605 74.52 53.565 73.56C54.5217 72.6033 55 71.4167 55 70V55H70.125C71.5417 55 72.7083 54.52 73.625 53.56C74.5417 52.6033 75 51.4167 75 50C75 48.5833 74.52 47.395 73.56 46.435C72.6033 45.4783 71.4167 45 70 45H55V29.875C55 28.4583 54.5217 27.2917 53.565 26.375C52.605 25.4583 51.4167 25 50 25C48.5833 25 47.3967 25.4783 46.44 26.435C45.48 27.395 45 28.5833 45 30V45H29.875C28.4583 45 27.2917 45.4783 26.375 46.435C25.4583 47.395 25 48.5833 25 50C25 51.4167 25.4783 52.6033 26.435 53.56C27.395 54.52 28.5833 55 30 55H45V70.125C45 71.5417 45.48 72.7083 46.44 73.625C47.3967 74.5417 48.5833 75 50 75ZM50 100C43.0833 100 36.5833 98.6867 30.5 96.06C24.4167 93.4367 19.125 89.875 14.625 85.375C10.125 80.875 6.56333 75.5833 3.94 69.5C1.31333 63.4167 0 56.9167 0 50C0 43.0833 1.31333 36.5833 3.94 30.5C6.56333 24.4167 10.125 19.125 14.625 14.625C19.125 10.125 24.4167 6.56167 30.5 3.935C36.5833 1.31167 43.0833 0 50 0C56.9167 0 63.4167 1.31167 69.5 3.935C75.5833 6.56167 80.875 10.125 85.375 14.625C89.875 19.125 93.4367 24.4167 96.06 30.5C98.6867 36.5833 100 43.0833 100 50C100 56.9167 98.6867 63.4167 96.06 69.5C93.4367 75.5833 89.875 80.875 85.375 85.375C80.875 89.875 75.5833 93.4367 69.5 96.06C63.4167 98.6867 56.9167 100 50 100Z" fill="white"/>
</svg>
