<svg width="27" height="22" viewBox="0 0 27 22" fill="none" xmlns="http://www.w3.org/2000/svg">
<path d="M2.83317 21.3339C2.09984 21.3339 1.47206 21.0728 0.949837 20.5506C0.427615 20.0284 0.166504 19.4006 0.166504 18.6673V2.66728C0.166504 1.93394 0.427615 1.30617 0.949837 0.783944C1.47206 0.261721 2.09984 0.000610352 2.83317 0.000610352H24.1665C24.8998 0.000610352 25.5276 0.261721 26.0498 0.783944C26.5721 1.30617 26.8332 1.93394 26.8332 2.66728V18.6673C26.8332 19.4006 26.5721 20.0284 26.0498 20.5506C25.5276 21.0728 24.8998 21.3339 24.1665 21.3339H2.83317ZM2.83317 13.3339H24.1665V2.66728H2.83317V13.3339Z" fill="#6ECEF5"/>
<path d="M15.8974 6.02948C16.0973 6.36004 16.2708 6.68375 16.1918 6.78672C16.0681 6.95375 15.8036 6.6861 15.648 6.52629C15.5139 6.39198 14.4586 5.07911 13.5466 4.8427C13.0642 4.71765 12.6183 4.7932 12.2939 5.05157C12.0104 5.27671 11.8505 5.6295 11.8652 5.99169C11.8786 6.42122 12.2042 6.85606 12.6132 7.40408C13.0577 8.00113 13.6359 8.7961 13.515 9.26251C13.3573 9.87071 12.9747 9.7795 12.6701 9.74435C12.7946 8.27139 11.8074 7.37838 11.1667 7.2123C10.5261 7.04622 9.86295 7.44774 9.69174 8.10818C9.53408 8.71638 9.77803 9.83883 11.537 10.4541L11.299 11.372L12.2412 11.6162L12.4801 10.6946C13.1165 10.7998 14.1684 10.6982 14.4527 9.60118C14.6704 8.76163 14.1372 7.8549 13.8603 7.48047C13.6413 7.19274 13.1249 6.46954 13.0567 6.36028C12.9678 6.23769 12.8059 6.02449 12.8475 5.86404C12.891 5.69613 13.2299 5.67647 13.6059 5.91728C13.9828 6.15436 14.5483 6.71907 14.7535 6.95145C15.1077 7.35386 15.3514 7.62409 15.8639 7.75695C16.6817 7.96895 17.1004 7.42442 17.1845 7.0998C17.3122 6.60727 17.0466 6.08047 16.9765 5.96277C16.8757 5.79327 16.7916 5.65203 16.7111 5.54356L15.8974 6.02948ZM10.6046 8.35676C10.6346 8.24109 10.7742 8.10605 10.9475 8.15099C11.1737 8.2096 11.706 8.63829 11.7101 9.4915C10.7253 9.11677 10.5369 8.61795 10.6046 8.35676Z" fill="#6ECEF5"/>
</svg>
