<svg width="21" height="21" viewBox="0 0 21 21" fill="none" xmlns="http://www.w3.org/2000/svg">
<path d="M6.03326 2.34886L4.58819 0.93836C2.16292 2.74341 0.566279 5.52495 0.424805 8.68131H2.44587C2.59745 6.06745 3.97177 3.77909 6.03326 2.34886ZM18.5537 8.68131H20.5748C20.4232 5.52495 18.8266 2.74341 16.4114 0.93836L14.9765 2.34886C17.0177 3.77909 18.4022 6.06745 18.5537 8.68131ZM16.563 9.1745C16.563 6.14636 14.9057 3.61141 12.0156 2.94068V2.26995C12.0156 1.45127 11.3385 0.790405 10.4998 0.790405C9.66106 0.790405 8.98401 1.45127 8.98401 2.26995V2.94068C6.08378 3.61141 4.43662 6.1365 4.43662 9.1745V14.1063L2.41555 16.079V17.0654H18.5841V16.079L16.563 14.1063V9.1745ZM10.4998 20.0245C10.6413 20.0245 10.7726 20.0146 10.904 19.985C11.5609 19.847 12.0964 19.413 12.3592 18.8211C12.4602 18.5844 12.5108 18.328 12.5108 18.0518H8.46864C8.47874 19.1368 9.37812 20.0245 10.4998 20.0245Z" fill="#6ECEF5"/>
</svg>
