<svg width="27" height="22" viewBox="0 0 27 22" fill="none" xmlns="http://www.w3.org/2000/svg">
<path d="M2.83317 21.3333C2.09984 21.3333 1.47206 21.0722 0.949837 20.55C0.427615 20.0278 0.166504 19.4 0.166504 18.6667V2.66667C0.166504 1.93333 0.427615 1.30556 0.949837 0.783333C1.47206 0.261111 2.09984 0 2.83317 0H24.1665C24.8998 0 25.5276 0.261111 26.0498 0.783333C26.5721 1.30556 26.8332 1.93333 26.8332 2.66667V18.6667C26.8332 19.4 26.5721 20.0278 26.0498 20.55C25.5276 21.0722 24.8998 21.3333 24.1665 21.3333H2.83317ZM2.83317 13.3333H24.1665V2.66667H2.83317V13.3333Z" fill="white"/>
</svg>
